<svg xmlns="http://www.w3.org/2000/svg" id="uuid-242a2979-7395-4ab2-9ea9-52a44793532b" viewBox="0 0 364.14 41.19">
  <defs>
    
  </defs>
  <path d="M7.66,29.79c-2.34-1.42-4.2-3.34-5.58-5.76-1.38-2.42-2.07-5.06-2.07-7.93s.68-5.47,2.05-7.89c1.37-2.42,3.22-4.34,5.56-5.76C9.96,1.02,12.54.31,15.35.31c1.89,0,3.62.28,5.17.83,1.55.55,3.05,1.43,4.5,2.64.29.21.43.51.43.91,0,.21-.05.4-.16.57-.11.17-.25.3-.43.38-.05.18-.17.33-.36.43-.18.11-.38.16-.59.16-.39,0-.72-.12-.99-.36-1.03-.92-2.14-1.59-3.35-2.01-1.21-.42-2.62-.63-4.22-.63-2.21,0-4.26.59-6.16,1.76-1.89,1.17-3.4,2.74-4.52,4.72-1.12,1.97-1.68,4.1-1.68,6.39s.55,4.5,1.66,6.47c1.1,1.97,2.6,3.54,4.5,4.7,1.89,1.16,3.96,1.74,6.2,1.74,2.87,0,5.46-.92,7.77-2.76.29-.21.58-.32.87-.32.39,0,.74.14,1.03.41.29.28.43.64.43,1.09,0,.42-.14.79-.43,1.1-2.47,2.26-5.7,3.39-9.67,3.39-2.79,0-5.35-.71-7.7-2.13Z" fill="rgb(255, 255, 255)"/>
  <path d="M45.05,11.18c1.67.96,2.99,2.28,3.95,3.97.96,1.68,1.44,3.55,1.44,5.6v9.27c0,.42-.14.78-.43,1.07s-.66.43-1.11.43-.82-.14-1.1-.41c-.29-.28-.43-.64-.43-1.08v-2.37c-.92,1.26-2.09,2.26-3.51,2.98-1.42.72-2.99,1.09-4.7,1.09-2,0-3.81-.48-5.43-1.44-1.62-.96-2.89-2.27-3.83-3.95-.93-1.67-1.4-3.53-1.4-5.58s.48-3.92,1.44-5.6c.96-1.68,2.28-3.01,3.95-3.97,1.67-.96,3.53-1.44,5.58-1.44s3.91.48,5.58,1.44ZM43.53,27.9c1.21-.71,2.16-1.69,2.86-2.94.7-1.25,1.05-2.65,1.05-4.2s-.35-2.95-1.05-4.2c-.7-1.25-1.65-2.24-2.86-2.96-1.21-.72-2.57-1.09-4.07-1.09s-2.86.36-4.08,1.09c-1.22.72-2.18,1.71-2.88,2.96-.7,1.25-1.05,2.65-1.05,4.2s.35,2.95,1.05,4.2c.7,1.25,1.66,2.23,2.88,2.94,1.22.71,2.58,1.07,4.08,1.07s2.85-.36,4.07-1.07Z" fill="rgb(255, 255, 255)"/>
  <path d="M67.94,10.14c.64.29.97.7.97,1.22,0,.16-.01.28-.04.36-.11.37-.27.62-.49.75-.22.13-.53.2-.93.2-.24,0-.65-.03-1.22-.08-.21-.03-.53-.04-.95-.04-1.97,0-3.59.53-4.83,1.58-1.25,1.05-1.87,2.42-1.87,4.1v11.8c0,.47-.13.84-.4,1.1-.26.26-.63.39-1.1.39s-.84-.13-1.1-.39c-.26-.26-.4-.63-.4-1.1V11.44c0-.47.13-.84.4-1.11s.63-.39,1.1-.39.84.13,1.1.39c.26.26.4.63.4,1.11v1.74c.76-1.11,1.74-1.96,2.92-2.57,1.18-.61,2.46-.91,3.83-.91,1.11,0,1.98.14,2.62.43Z" fill="rgb(255, 255, 255)"/>
  <path d="M73.58,29.61c-1.01-1.28-1.52-2.91-1.52-4.91V2.2c0-.45.14-.81.43-1.09s.64-.41,1.07-.41c.45,0,.81.14,1.09.41s.41.64.41,1.09v22.5c0,1.13.23,2.05.69,2.76.46.71,1.05,1.07,1.76,1.07h.99c.39,0,.71.14.95.41s.36.64.36,1.09-.16.81-.49,1.08c-.33.28-.76.41-1.28.41h-.51c-1.6,0-2.91-.64-3.93-1.91Z" fill="rgb(255, 255, 255)"/>
  <path d="M86.69,30.3c-1.67-.95-2.98-2.26-3.93-3.93-.95-1.67-1.42-3.54-1.42-5.62s.47-3.96,1.42-5.64c.95-1.68,2.26-3,3.93-3.95,1.67-.95,3.55-1.42,5.62-1.42s3.95.47,5.6,1.42c1.66.95,2.97,2.26,3.93,3.95.96,1.68,1.44,3.57,1.44,5.64s-.47,3.95-1.42,5.62c-.95,1.67-2.26,2.98-3.93,3.93-1.67.95-3.55,1.42-5.62,1.42s-3.95-.47-5.62-1.42ZM96.41,27.9c1.21-.71,2.16-1.69,2.84-2.94.68-1.25,1.03-2.65,1.03-4.2s-.34-2.99-1.03-4.24c-.68-1.25-1.63-2.23-2.84-2.94-1.21-.71-2.58-1.07-4.1-1.07s-2.86.36-4.08,1.07c-1.22.71-2.18,1.69-2.88,2.94-.7,1.25-1.05,2.66-1.05,4.24s.35,2.95,1.05,4.2c.7,1.25,1.66,2.23,2.88,2.94,1.22.71,2.58,1.07,4.08,1.07s2.89-.36,4.1-1.07Z" fill="rgb(255, 255, 255)"/>
  <path d="M111.25,30.9c-1.5-.55-2.71-1.33-3.63-2.33-.26-.32-.39-.62-.39-.91,0-.45.21-.84.63-1.18.32-.24.64-.36.99-.36.45,0,.83.18,1.14.55.63.74,1.47,1.3,2.51,1.7,1.04.39,2.19.59,3.45.59,1.84,0,3.22-.32,4.14-.95.92-.63,1.39-1.46,1.42-2.49,0-.95-.46-1.74-1.38-2.37-.92-.63-2.38-1.1-4.38-1.42-2.58-.42-4.51-1.15-5.78-2.19-1.28-1.04-1.91-2.29-1.91-3.77,0-1.92.74-3.41,2.23-4.46,1.49-1.05,3.35-1.58,5.58-1.58,1.74,0,3.25.3,4.54.89,1.29.59,2.33,1.41,3.12,2.47.21.34.32.64.32.91,0,.45-.21.8-.63,1.07-.18.13-.43.2-.75.2-.55,0-1.01-.2-1.38-.59-1.29-1.47-3.05-2.21-5.29-2.21-1.45,0-2.6.3-3.47.89-.87.59-1.3,1.34-1.3,2.23,0,.95.41,1.7,1.22,2.27.82.57,2.26,1.02,4.34,1.36,2.81.47,4.83,1.24,6.04,2.31,1.21,1.07,1.82,2.39,1.82,3.97,0,1.21-.36,2.29-1.09,3.24-.72.95-1.73,1.68-3.02,2.21-1.29.53-2.75.79-4.38.79s-3.2-.28-4.7-.83Z" fill="rgb(255, 255, 255)"/>
  <path d="M170.33,1.3c.39.39.59.88.59,1.46v26.72c0,.58-.2,1.07-.61,1.46-.41.39-.89.59-1.44.59s-1.07-.2-1.46-.59-.59-.88-.59-1.46V9.86l-9.55,19.46c-.45.68-1.04,1.03-1.78,1.03-.87,0-1.5-.41-1.89-1.22l-9.43-18.9v19.26c0,.58-.2,1.07-.59,1.46s-.88.59-1.46.59-1.07-.2-1.46-.59-.59-.88-.59-1.46V2.76c0-.58.2-1.07.59-1.46s.88-.59,1.46-.59c.79,0,1.39.37,1.82,1.1l11.72,23.48,11.41-23.48c.42-.74,1.03-1.1,1.82-1.1.58,0,1.07.2,1.46.59Z" fill="rgb(255, 255, 255)" stroke="rgb(255, 255, 255)" stroke-miterlimit="10" stroke-width="1.41px"/>
  <path d="M192.93,11.22c1.64.96,2.95,2.28,3.91,3.95.96,1.67,1.44,3.53,1.44,5.58v8.8c0,.58-.19,1.06-.57,1.44s-.86.57-1.44.57-1.06-.19-1.44-.57c-.38-.38-.57-.86-.57-1.44v-1.46c-.92,1.13-2.04,2.01-3.35,2.64-1.32.63-2.74.95-4.26.95-1.89,0-3.61-.47-5.15-1.42s-2.75-2.26-3.63-3.93c-.88-1.67-1.32-3.53-1.32-5.58s.47-3.91,1.42-5.58c.95-1.67,2.26-2.99,3.93-3.95,1.67-.96,3.52-1.44,5.54-1.44s3.86.48,5.51,1.44ZM190.99,27.17c1.07-.65,1.9-1.53,2.51-2.64.6-1.12.91-2.37.91-3.77s-.3-2.66-.91-3.79c-.61-1.13-1.44-2.02-2.51-2.66-1.07-.64-2.26-.97-3.57-.97s-2.51.32-3.57.97c-1.07.65-1.91,1.53-2.53,2.66-.62,1.13-.93,2.39-.93,3.79s.31,2.65.93,3.77c.62,1.12,1.46,2,2.53,2.64s2.26.97,3.57.97,2.51-.32,3.57-.97Z" fill="rgb(255, 255, 255)" stroke="rgb(255, 255, 255)" stroke-miterlimit="10" stroke-width="1.41px"/>
  <path d="M218.85,11.18c1.64.93,2.93,2.23,3.87,3.89.93,1.66,1.4,3.55,1.4,5.68v8.52c0,2.08-.46,3.97-1.38,5.68-.92,1.71-2.22,3.06-3.89,4.04-1.67.99-3.56,1.48-5.66,1.48-1.89,0-3.66-.38-5.29-1.13-1.63-.75-3-1.82-4.1-3.22-.29-.37-.43-.74-.43-1.1,0-.55.28-1.03.83-1.42.37-.24.74-.36,1.1-.36.66,0,1.2.28,1.62.83.71.92,1.6,1.62,2.68,2.11,1.08.49,2.3.73,3.67.73,1.29,0,2.46-.31,3.51-.93,1.05-.62,1.89-1.53,2.53-2.72.63-1.2.95-2.62.95-4.28v-1.93c-.82,1.45-1.89,2.58-3.24,3.39-1.34.82-2.86,1.22-4.54,1.22-1.95,0-3.69-.47-5.23-1.4-1.54-.93-2.74-2.23-3.59-3.89-.86-1.66-1.28-3.54-1.28-5.64s.46-4.03,1.38-5.68c.92-1.66,2.21-2.95,3.87-3.89,1.66-.93,3.54-1.4,5.64-1.4s3.94.47,5.58,1.4ZM216.88,27.19c1.07-.63,1.89-1.51,2.49-2.62.59-1.12.89-2.39.89-3.81s-.3-2.7-.89-3.83c-.59-1.13-1.42-2.01-2.49-2.64-1.07-.63-2.27-.95-3.61-.95s-2.55.32-3.61.95-1.9,1.51-2.51,2.64c-.61,1.13-.91,2.41-.91,3.83s.3,2.69.91,3.81c.6,1.12,1.44,1.99,2.51,2.62s2.27.95,3.61.95,2.55-.32,3.61-.95Z" fill="rgb(255, 255, 255)" stroke="rgb(255, 255, 255)" stroke-miterlimit="10" stroke-width="1.41px"/>
  <path d="M248.59,10.45c.37.37.55.86.55,1.46v17.6c0,.58-.18,1.06-.55,1.44-.37.38-.86.57-1.46.57s-1.06-.19-1.44-.57c-.38-.38-.57-.86-.57-1.44v-.43c-.84.84-1.84,1.49-3,1.95-1.16.46-2.39.69-3.71.69-1.82,0-3.45-.39-4.89-1.18-1.45-.79-2.58-1.94-3.39-3.45-.82-1.51-1.22-3.34-1.22-5.47v-9.71c0-.58.19-1.06.57-1.44.38-.38.86-.57,1.44-.57s1.06.19,1.44.57c.38.38.57.86.57,1.44v9.71c0,2.13.57,3.74,1.72,4.83,1.14,1.09,2.66,1.64,4.56,1.64,1.11,0,2.11-.22,3.02-.67.91-.45,1.62-1.05,2.13-1.82.51-.76.77-1.62.77-2.57v-11.13c0-.6.19-1.09.57-1.46.38-.37.86-.55,1.44-.55s1.09.18,1.46.55Z" fill="rgb(255, 255, 255)" stroke="rgb(255, 255, 255)" stroke-miterlimit="10" stroke-width="1.41px"/>
  <path d="M258.26,30.86c-1.58-.55-2.82-1.28-3.71-2.17-.34-.34-.51-.75-.51-1.22,0-.63.26-1.14.79-1.54.5-.37.96-.55,1.38-.55.53,0,1.03.24,1.5.71.5.55,1.25,1.03,2.25,1.44,1,.41,2.07.61,3.2.61,1.5,0,2.66-.25,3.49-.75.83-.5,1.24-1.17,1.24-2.01s-.41-1.49-1.22-2.03c-.82-.54-2.2-.99-4.14-1.36-5.05-.97-7.58-3.05-7.58-6.24,0-1.29.38-2.38,1.14-3.28.76-.89,1.76-1.57,3-2.01,1.24-.45,2.55-.67,3.95-.67,1.71,0,3.24.28,4.6.83,1.35.55,2.43,1.32,3.22,2.29.34.42.51.84.51,1.26,0,.45-.22.86-.67,1.22-.29.21-.66.32-1.11.32-.68,0-1.3-.25-1.85-.75-.66-.6-1.36-1.03-2.09-1.28-.74-.25-1.63-.37-2.68-.37-1.21,0-2.2.2-2.98.61-.78.41-1.16.98-1.16,1.72,0,.53.13.97.39,1.32.26.36.76.68,1.5.99.74.3,1.8.6,3.2.89,2.87.58,4.9,1.38,6.1,2.41,1.2,1.03,1.8,2.35,1.8,3.99,0,1.21-.33,2.31-.99,3.3-.66.99-1.63,1.76-2.9,2.33-1.28.57-2.81.85-4.6.85s-3.47-.28-5.05-.83Z" fill="rgb(255, 255, 255)" stroke="rgb(255, 255, 255)" stroke-miterlimit="10" stroke-width="1.41px"/>
  <path d="M286.5,28.13c.33.37.49.84.49,1.42s-.22,1.05-.65,1.42c-.43.37-.99.55-1.68.55h-.71c-1.29,0-2.47-.34-3.53-1.01-1.07-.67-1.9-1.58-2.51-2.74-.61-1.16-.91-2.46-.91-3.91v-9.75h-1.82c-.55,0-1-.16-1.34-.47-.34-.32-.51-.71-.51-1.18,0-.53.17-.95.51-1.26.34-.32.79-.47,1.34-.47h1.82v-5.68c0-.58.18-1.05.55-1.42.37-.37.84-.55,1.42-.55s1.05.18,1.42.55c.37.37.55.84.55,1.42v5.68h3.35c.55,0,1,.16,1.34.47.34.32.51.74.51,1.26,0,.47-.17.87-.51,1.18-.34.32-.79.47-1.34.47h-3.35v9.75c0,1.05.29,1.93.87,2.64.58.71,1.29,1.07,2.13,1.07h1.34c.47,0,.87.18,1.2.55Z" fill="rgb(255, 255, 255)" stroke="rgb(255, 255, 255)" stroke-miterlimit="10" stroke-width="1.41px"/>
  <path d="M310,21.64c-.34.33-.78.49-1.3.49h-15c.29,1.84,1.13,3.33,2.51,4.46,1.38,1.13,3.07,1.7,5.07,1.7.79,0,1.61-.14,2.47-.43.85-.29,1.56-.64,2.11-1.07.37-.29.8-.43,1.3-.43s.89.13,1.18.39c.47.39.71.84.71,1.34,0,.47-.21.87-.63,1.18-.89.71-2.01,1.29-3.33,1.74-1.33.45-2.6.67-3.81.67-2.16,0-4.09-.47-5.8-1.4-1.71-.93-3.05-2.23-4.01-3.89-.96-1.66-1.44-3.54-1.44-5.64s.45-3.99,1.36-5.66c.91-1.67,2.17-2.97,3.79-3.91,1.62-.93,3.45-1.4,5.51-1.4s3.78.45,5.25,1.34c1.47.89,2.6,2.14,3.39,3.75.79,1.61,1.18,3.45,1.18,5.53,0,.5-.17.91-.51,1.24ZM296.01,14.75c-1.2,1.05-1.95,2.46-2.27,4.22h13.14c-.24-1.76-.89-3.17-1.97-4.22-1.08-1.05-2.49-1.58-4.22-1.58-1.92,0-3.48.53-4.68,1.58Z" fill="rgb(255, 255, 255)" stroke="rgb(255, 255, 255)" stroke-miterlimit="10" stroke-width="1.41px"/>
  <path d="M315.42,5.66c-.51-.51-.77-1.13-.77-1.84s.26-1.32.77-1.84c.51-.51,1.12-.77,1.83-.77s1.32.26,1.84.77.77,1.12.77,1.84-.26,1.32-.77,1.84c-.51.51-1.12.77-1.84.77s-1.32-.26-1.83-.77ZM315.82,30.95c-.38-.38-.57-.86-.57-1.44V11.95c0-.6.19-1.09.57-1.46.38-.37.86-.55,1.44-.55s1.09.18,1.46.55c.37.37.55.86.55,1.46v17.56c0,.58-.18,1.06-.55,1.44-.37.38-.86.57-1.46.57s-1.06-.19-1.44-.57Z" fill="rgb(255, 255, 255)" stroke="rgb(255, 255, 255)" stroke-miterlimit="10" stroke-width="1.41px"/>
  <path d="M339.83,10.33c.79.42,1.18.95,1.18,1.58,0,.18-.01.32-.04.39-.24.84-.76,1.26-1.58,1.26-.13,0-.33-.03-.59-.08-1.05-.18-1.91-.28-2.57-.28-1.89,0-3.42.43-4.58,1.3-1.16.87-1.74,2.04-1.74,3.51v11.52c0,.63-.16,1.12-.49,1.46-.33.34-.82.51-1.48.51s-1.12-.16-1.46-.49c-.34-.33-.51-.82-.51-1.48V11.91c0-.63.17-1.12.51-1.46s.83-.51,1.46-.51c1.32,0,1.97.66,1.97,1.97v.75c.79-.92,1.76-1.64,2.92-2.17,1.16-.53,2.39-.79,3.71-.79,1.39,0,2.49.21,3.28.63Z" fill="rgb(255, 255, 255)" stroke="rgb(255, 255, 255)" stroke-miterlimit="10" stroke-width="1.41px"/>
  <path d="M346.94,30.28c-1.66-.93-2.95-2.23-3.87-3.89-.92-1.66-1.38-3.54-1.38-5.64s.46-4.03,1.38-5.68c.92-1.66,2.21-2.95,3.87-3.89,1.66-.93,3.54-1.4,5.64-1.4s3.94.47,5.58,1.4c1.64.93,2.93,2.23,3.87,3.89.93,1.66,1.4,3.55,1.4,5.68s-.46,3.99-1.38,5.64c-.92,1.66-2.2,2.95-3.85,3.89-1.64.93-3.52,1.4-5.62,1.4s-3.99-.47-5.64-1.4ZM356.19,27.19c1.07-.63,1.89-1.51,2.49-2.62.59-1.12.89-2.39.89-3.81s-.3-2.7-.89-3.83c-.59-1.13-1.42-2.01-2.49-2.64-1.07-.63-2.27-.95-3.61-.95s-2.55.32-3.61.95-1.9,1.51-2.51,2.64c-.61,1.13-.91,2.41-.91,3.83s.3,2.69.91,3.81c.6,1.12,1.44,1.99,2.51,2.62s2.27.95,3.61.95,2.55-.32,3.61-.95Z" fill="rgb(255, 255, 255)" stroke="rgb(255, 255, 255)" stroke-miterlimit="10" stroke-width="1.41px"/>
</svg>