<?xml version="1.0" encoding="UTF-8"?>
<svg id="uuid-295810b3-befb-4503-8934-9b9643396cd1" data-name="Calque 1" xmlns="http://www.w3.org/2000/svg" viewBox="0 0 40 39.37">
  <defs>
    <style>
      .uuid-77731df8-1ad3-45d2-b993-021afb0a8cb1 {
        fill: #fff;
      }
    </style>
  </defs>
  <path class="uuid-77731df8-1ad3-45d2-b993-021afb0a8cb1" d="M35.7,25.2c-.2.14-4.3,4.48-4.3,7.53,0,3.22,2.04,5.27,4.3,5.38,1.95.09,4.3-1.92,4.3-5.38,0-3.23-4.11-7.39-4.3-7.53ZM13.28,38.11c.81.81,1.89,1.26,3.04,1.26s2.23-.45,3.04-1.26l15.07-15.07-1.52-1.52L16.33,4.93,11.39,0l-3.04,3.04,4.93,4.93L1.26,20c-.81.81-1.26,1.89-1.26,3.04s.45,2.23,1.26,3.04l12.02,12.02ZM16.33,11.02l12.02,12.02H4.3l12.02-12.02Z"/>
</svg>