<?xml version="1.0" encoding="UTF-8"?>
<svg id="uuid-ff949900-c5e2-44e4-83ff-a06c7a40fe2a" data-name="Calque 1" xmlns="http://www.w3.org/2000/svg" viewBox="0 0 40 32">
  <defs>
    <style>
      .uuid-249457b8-113b-4c9e-b5d2-c1dcdbd89208 {
        fill: #fff;
      }
    </style>
  </defs>
  <path class="uuid-249457b8-113b-4c9e-b5d2-c1dcdbd89208" d="M8,24h16v-1.1c0-1.47-.73-2.65-2.2-3.55-1.47-.9-3.4-1.35-5.8-1.35s-4.33.45-5.8,1.35c-1.47.9-2.2,2.08-2.2,3.55v1.1ZM16,16c1.1,0,2.04-.39,2.83-1.17.78-.78,1.18-1.72,1.17-2.83s-.39-2.04-1.17-2.82c-.78-.78-1.72-1.17-2.83-1.18-1.1,0-2.04.39-2.82,1.18-.78.79-1.17,1.73-1.18,2.82s.39,2.04,1.18,2.83c.79.79,1.73,1.18,2.82,1.17M4,32c-1.1,0-2.04-.39-2.82-1.17-.78-.78-1.17-1.72-1.18-2.83V4C0,2.9.39,1.96,1.18,1.18,1.96.39,2.9,0,4,0h24c1.1,0,2.04.39,2.83,1.18.78.78,1.18,1.73,1.17,2.82v9l8-8v22l-8-8v9c0,1.1-.39,2.04-1.17,2.83-.78.78-1.72,1.18-2.83,1.17H4Z"/>
</svg>